<svg width="94" height="94" viewBox="0 0 94 94" fill="none" xmlns="http://www.w3.org/2000/svg">
<path d="M47 84.6C26.273 84.6 9.4 67.727 9.4 47C9.4 26.273 26.273 9.4 47 9.4C67.727 9.4 84.6 26.273 84.6 47C84.6 67.727 67.727 84.6 47 84.6ZM47 0C40.8279 0 34.7162 1.21569 29.0139 3.57766C23.3116 5.93963 18.1303 9.40163 13.766 13.766C4.95177 22.5802 0 34.5348 0 47C0 59.4652 4.95177 71.4198 13.766 80.234C18.1303 84.5984 23.3116 88.0604 29.0139 90.4223C34.7162 92.7843 40.8279 94 47 94C59.4652 94 71.4198 89.0482 80.234 80.234C89.0482 71.4198 94 59.4652 94 47C94 40.8279 92.7843 34.7162 90.4223 29.0139C88.0604 23.3116 84.5984 18.1303 80.234 13.766C75.8697 9.40163 70.6884 5.93963 64.9861 3.57766C59.2838 1.21569 53.1721 0 47 0ZM51.7 23.5H42.3V42.3H23.5V51.7H42.3V70.5H51.7V51.7H70.5V42.3H51.7V23.5Z" fill="black"/>
</svg>
