<svg width="30" height="15" viewBox="0 0 15 19" fill="none" xmlns="http://www.w3.org/2000/svg">
<path d="M7.5 5C8.425 5 9.16667 4.25 9.16667 3.33333C9.16667 3.01667 9.08333 2.725 8.925 2.475L7.5 0L6.075 2.475C5.91667 2.725 5.83333 3.01667 5.83333 3.33333C5.83333 3.77536 6.00893 4.19928 6.32149 4.51185C6.63405 4.82441 7.05797 5 7.5 5ZM11.3333 13.3333L10.4417 12.4333L9.54167 13.3333C8.45833 14.4083 6.55833 14.4167 5.46667 13.3333L4.58333 12.4333L3.66667 13.3333C3.125 13.8667 2.4 14.1667 1.63333 14.1667C1.025 14.1667 0.466667 13.975 0 13.6583V17.5C0 17.721 0.0877973 17.933 0.244078 18.0893C0.400358 18.2455 0.61232 18.3333 0.833333 18.3333H14.1667C14.3877 18.3333 14.5996 18.2455 14.7559 18.0893C14.9122 17.933 15 17.721 15 17.5V13.6583C14.5333 13.975 13.975 14.1667 13.3667 14.1667C12.6 14.1667 11.875 13.8667 11.3333 13.3333ZM12.5 7.5H8.33333V5.83333H6.66667V7.5H2.5C1.83696 7.5 1.20107 7.76339 0.732233 8.23223C0.263392 8.70107 0 9.33696 0 10V11.2833C0 12.1833 0.733333 12.9167 1.63333 12.9167C2.08333 12.9167 2.5 12.75 2.78333 12.4417L4.58333 10.6667L6.34167 12.4417C6.95833 13.0583 8.03333 13.0583 8.65 12.4417L10.4167 10.6667L12.2083 12.4417C12.5 12.75 12.9167 12.9167 13.3583 12.9167C14.2583 12.9167 15 12.1833 15 11.2833V10C15 9.33696 14.7366 8.70107 14.2678 8.23223C13.7989 7.76339 13.163 7.5 12.5 7.5Z" fill="black"/>
</svg>
