<svg width="30" height="15" viewBox="0 0 71 59" fill="none" xmlns="http://www.w3.org/2000/svg">
<path d="M24.85 59C23.9085 59 23.0055 58.6892 22.3398 58.136C21.674 57.5827 21.3 56.8324 21.3 56.05V47.2H7.1C5.21696 47.2 3.41105 46.5784 2.07954 45.4719C0.748033 44.3655 0 42.8648 0 41.3V5.9C0 2.6255 3.195 0 7.1 0H63.9C65.783 0 67.5889 0.621605 68.9205 1.72807C70.252 2.83453 71 4.33522 71 5.9V41.3C71 42.8648 70.252 44.3655 68.9205 45.4719C67.5889 46.5784 65.783 47.2 63.9 47.2H42.245L29.11 58.1445C28.4 58.705 27.5125 59 26.625 59H24.85ZM10.65 8.85V14.75H60.35V8.85H10.65ZM10.65 20.65V26.55H39.05V20.65H10.65ZM10.65 32.45V38.35H46.15V32.45H10.65Z" fill="black"/>
</svg>
