<svg width="30" height="15" viewBox="0 0 35 51" fill="none" xmlns="http://www.w3.org/2000/svg">
<path d="M17.5 0C12.8587 0 8.40752 1.88062 5.12563 5.22814C1.84374 8.57567 0 13.1159 0 17.85C0 23.919 2.975 29.2485 7.5 32.487V38.25C7.5 38.9263 7.76339 39.5749 8.23223 40.0531C8.70107 40.5313 9.33696 40.8 10 40.8H25C25.663 40.8 26.2989 40.5313 26.7678 40.0531C27.2366 39.5749 27.5 38.9263 27.5 38.25V32.487C32.025 29.2485 35 23.919 35 17.85C35 13.1159 33.1563 8.57567 29.8744 5.22814C26.5925 1.88062 22.1413 0 17.5 0ZM10 48.45C10 49.1263 10.2634 49.7749 10.7322 50.2531C11.2011 50.7313 11.837 51 12.5 51H22.5C23.163 51 23.7989 50.7313 24.2678 50.2531C24.7366 49.7749 25 49.1263 25 48.45V45.9H10V48.45Z" fill="black"/>
</svg>
